# xmcd
#
# Track frame offsets:
#	150
#	14416
#	31062
#	45507
#	66583
#	83796
#	95995
#	117654
#	133802
#	148748
#	168588
#	184258
#	201734
#	223515
#	240691
#	253986
#	270543
#	286013
#
# Disc length: 4039 seconds
#
# Revision: 1
# Processed by: cddbd v1.5.1PL2 Copyright (c) Steve Scherf et al.
# Submitted via: audiograbber 1.83.01
#
DISCID=220fc512
DTITLE=Jakub Smolik - 36 nejkrasnejsich balad CD2
DYEAR=2006
DGENRE=Country
TTITLE0=POPELKY
TTITLE1=STARY CHLAPI TY TO ZNAJ
TTITLE2=ZACHRANTE MILENKY 
TTITLE3=ODPOUSTEJ
TTITLE4=Z DLANE MI HADEJ
TTITLE5=SAM V DESTI
TTITLE6=MAMINKA
TTITLE7=HVEZDICKA
TTITLE8=ZAHRADA TICHA
TTITLE9=POSEL DOBRYCH ZPRAV
TTITLE10=VZPOMINKA
TTITLE11=JSI ZKLAMANA
TTITLE12=NAVRAT
TTITLE13=NEODCHAZEJ
TTITLE14=STYSKANI
TTITLE15=NEZAVOLAM
TTITLE16=CESTY
TTITLE17=LASKO
EXTD=
EXTT0=
EXTT1=
EXTT2=
EXTT3=
EXTT4=
EXTT5=
EXTT6=
EXTT7=
EXTT8=
EXTT9=
EXTT10=
EXTT11=
EXTT12=
EXTT13=
EXTT14=
EXTT15=
EXTT16=
EXTT17=
PLAYORDER=
